<?xml version="1.0" encoding="UTF-8"?>
<svg version="1.1" xmlns="http://www.w3.org/2000/svg" width="259" height="195">
<path d="M0 0 C85.47 0 170.94 0 259 0 C259 64.35 259 128.7 259 195 C173.53 195 88.06 195 0 195 C0 130.65 0 66.3 0 0 Z " fill="#F6F6F6" transform="translate(0,0)"/>
<path d="M0 0 C5.33145232 0.1305252 11.24967713 0.50608049 16 3 C18.28854165 7.57708331 18.34894203 11.79153622 19 17 C50.68 17 82.36 17 115 17 C113.87437406 26.0050075 113.87437406 26.0050075 113.16796875 30.11499023 C112.93267456 31.49067421 112.93267456 31.49067421 112.69262695 32.89414978 C112.52593506 33.85591629 112.35924316 34.8176828 112.1875 35.80859375 C112.01371826 36.81592056 111.83993652 37.82324738 111.66088867 38.86109924 C111.29543567 40.97487442 110.92896427 43.08847376 110.56152344 45.2019043 C109.99766826 48.45093592 109.44013628 51.70101433 108.8828125 54.95117188 C108.5264271 57.00787932 108.16966963 59.06452235 107.8125 61.12109375 C107.64580811 62.09702988 107.47911621 63.072966 107.30737305 64.07847595 C107.07207886 65.42106224 107.07207886 65.42106224 106.83203125 66.79077148 C106.69514893 67.58160629 106.5582666 68.3724411 106.41723633 69.1872406 C106 71 106 71 105 72 C102.62699131 72.09494733 100.28321297 72.12559319 97.90991211 72.11352539 C97.16849472 72.11367142 96.42707733 72.11381744 95.66319275 72.1139679 C93.20121379 72.11326865 90.73930957 72.10547574 88.27734375 72.09765625 C86.57483461 72.09579211 84.87232493 72.09436819 83.16981506 72.09336853 C78.68006927 72.08954302 74.19035562 72.07971247 69.70062256 72.06866455 C65.12268509 72.05845113 60.54474244 72.05387106 55.96679688 72.04882812 C46.97785043 72.03809022 37.98892788 72.02101341 29 72 C29.66 75.63 30.32 79.26 31 83 C31.87252411 82.99555878 32.74504822 82.99111755 33.64401245 82.98654175 C41.85498605 82.94651625 50.06592702 82.91604173 58.27697563 82.89637566 C62.4986575 82.88592536 66.72025895 82.87174355 70.94189453 82.84912109 C75.01377277 82.82743697 79.08557353 82.81544077 83.15750504 82.81024551 C84.71329087 82.80654176 86.26907232 82.79930954 87.82482529 82.78853989 C89.99903374 82.77408362 92.17291942 82.77201956 94.34716797 82.77294922 C95.58626923 82.768508 96.82537048 82.76406677 98.10202026 82.75949097 C101 83 101 83 103 85 C102.46428571 88.53571429 102.46428571 88.53571429 101 90 C98.62699131 90.09494733 96.28321297 90.12559319 93.90991211 90.11352539 C93.16849472 90.11367142 92.42707733 90.11381744 91.66319275 90.1139679 C89.20121379 90.11326865 86.73930957 90.10547574 84.27734375 90.09765625 C82.57483461 90.09579211 80.87232493 90.09436819 79.16981506 90.09336853 C74.68006927 90.08954302 70.19035562 90.07971247 65.70062256 90.06866455 C61.12268509 90.05845113 56.54474244 90.05387106 51.96679688 90.04882812 C42.97785043 90.03809022 33.98892788 90.02101341 25 90 C23.29878422 86.1408964 22.41509965 82.46644509 21.68725586 78.31713867 C21.57152725 77.66601608 21.45579865 77.01489349 21.33656311 76.34403992 C20.95740114 74.20290478 20.58600569 72.06050392 20.21484375 69.91796875 C19.95147183 68.41962982 19.68767622 66.9213653 19.42347717 65.423172 C18.87136902 62.28585873 18.32282595 59.14795104 17.77709961 56.00952148 C17.08057231 52.00421042 16.37764505 48.00005825 15.67232418 43.99628735 C15.12754492 40.90206166 14.58497826 37.80745148 14.04318428 34.7127018 C13.78483549 33.23717748 13.52609775 31.76172121 13.26695061 30.2863369 C12.02566716 23.20783791 10.78761132 16.14603379 10 9 C9.30132812 8.87882812 8.60265625 8.75765625 7.8828125 8.6328125 C6.97273438 8.46523438 6.06265625 8.29765625 5.125 8.125 C4.22007813 7.96257813 3.31515625 7.80015625 2.3828125 7.6328125 C0 7 0 7 -2 5 C-1.46428571 1.46428571 -1.46428571 1.46428571 0 0 Z " fill="#08090A" transform="translate(73,41)"/>
<path d="M0 0 C3.44652326 2.44128731 4.78056289 3.82966874 5.5625 8 C4.87642343 11.65907504 3.57265686 13.35167676 1 16 C-1.85324437 17.42662219 -3.83454549 17.31033868 -7 17 C-9.8125 15.4375 -9.8125 15.4375 -12 13 C-12.93605213 9.50540538 -13.3742539 7.15394952 -12.25 3.6875 C-9.09711847 -0.56889007 -4.89267662 -0.92332613 0 0 Z " fill="#474A4A" transform="translate(161,138)"/>
<path d="M0 0 C3 2.0625 3 2.0625 5 5 C5.625 8.5 5.625 8.5 5 12 C2.40783917 15.69186542 0.95850936 16.82883761 -3.5 17.625 C-7 17 -7 17 -9.9375 15 C-12.79117716 10.84919686 -12.7099846 8.9698922 -12 4 C-9.21741025 -0.63764958 -5.03817252 -1.13733003 0 0 Z " fill="#B7C3C4" transform="translate(119,138)"/>
<path d="M0 0 C4.95 0 9.9 0 15 0 C14.125 9.5 14.125 9.5 13 14 C8.38 14 3.76 14 -1 14 C-1.0861953 9.00067249 -0.8372965 5.02377899 0 0 Z " fill="#EDEEEE" transform="translate(161,94)"/>
<path d="M0 0 C5.28 0 10.56 0 16 0 C15.53875845 4.48063218 15.09335878 8.62656486 14 13 C9.05 13 4.1 13 -1 13 C-1.125 4.5 -1.125 4.5 0 0 Z " fill="#F7F7F7" transform="translate(166,63)"/>
<path d="M0 0 C5.28 0 10.56 0 16 0 C15.67 4.29 15.34 8.58 15 13 C10.05 13 5.1 13 0 13 C0 8.71 0 4.42 0 0 Z " fill="#FAFAFA" transform="translate(147,63)"/>
<path d="M0 0 C5.28 0 10.56 0 16 0 C16 4.29 16 8.58 16 13 C11.38 13 6.76 13 2 13 C0.43560486 8.11126518 0 5.39277414 0 0 Z " fill="#F6F7F7" transform="translate(111,63)"/>
<path d="M0 0 C2.14576637 -0.02685938 4.29162645 -0.04633088 6.4375 -0.0625 C7.63246094 -0.07410156 8.82742187 -0.08570312 10.05859375 -0.09765625 C13 0 13 0 14 1 C14.4652292 5.32490853 14.70500473 9.65935537 15 14 C10.71 14 6.42 14 2 14 C0.65088528 9.10945915 -0.11704968 5.10629224 0 0 Z " fill="#98D3F0" transform="translate(99,94)"/>
<path d="M0 0 C4.95 0 9.9 0 15 0 C15.33 4.29 15.66 8.58 16 13 C11.38 13 6.76 13 2 13 C0 4.5 0 4.5 0 0 Z " fill="#91CFEE" transform="translate(93,63)"/>
<path d="M0 0 C4.62 0 9.24 0 14 0 C14 4.29 14 8.58 14 13 C9.38 13 4.76 13 0 13 C0 8.71 0 4.42 0 0 Z " fill="#FDFDFD" transform="translate(130,63)"/>
<path d="M0 0 C0.28875 0.598125 0.5775 1.19625 0.875 1.8125 C2.73926079 5.56188621 2.73926079 5.56188621 6 8 C6.92166393 11.96543059 7.40594668 15.96892391 8 20 C12.29 20 16.58 20 21 20 C21.33 19.01 21.66 18.02 22 17 C22 18.32 22 19.64 22 21 C15.565 21.495 15.565 21.495 9 22 C9.33 25.63 9.66 29.26 10 33 C9.67 33 9.34 33 9 33 C8.76294088 38.33383015 9.48432436 43.12540556 10.5625 48.3515625 C10.99250861 50.95465035 11.0760342 53.36731589 11 56 C9.19217002 53.28825503 8.65149499 52.12551221 8.05444336 49.08618164 C7.8976561 48.3042897 7.74086884 47.52239777 7.57933044 46.71681213 C7.41779984 45.87311569 7.25626923 45.02941925 7.08984375 44.16015625 C6.91747696 43.28282333 6.74511017 42.40549042 6.56752014 41.50157166 C6.20370062 39.64028817 5.84331145 37.77833139 5.48608398 35.91577148 C4.94521663 33.10263539 4.39046359 30.29250595 3.83398438 27.48242188 C2.04622435 18.33300976 0.39780608 9.33332872 0 0 Z " fill="#131618" transform="translate(90,71)"/>
<path d="M0 0 C4.29 0 8.58 0 13 0 C13 4.62 13 9.24 13 14 C9.04 14 5.08 14 1 14 C0.00723119 9.03615596 -0.0749534 5.02187812 0 0 Z " fill="#95D0F0" transform="translate(130,94)"/>
<path d="M0 0 C4.95 0 9.9 0 15 0 C14.125 8.625 14.125 8.625 13 12 C8.38 12 3.76 12 -1 12 C-1 5 -1 5 0 0 Z " fill="#F2F2F2" transform="translate(164,79)"/>
<path d="M0 0 C4.62 0 9.24 0 14 0 C14 3.96 14 7.92 14 12 C9.38 12 4.76 12 0 12 C0 8.04 0 4.08 0 0 Z " fill="#F9FCFC" transform="translate(130,79)"/>
<path d="M0 0 C4.62 0 9.24 0 14 0 C15.07396066 4.29584263 15.07329796 7.60212211 15 12 C10.71 12 6.42 12 2 12 C0.64851459 7.69214025 0 4.58042408 0 0 Z " fill="#96D2F0" transform="translate(96,79)"/>
<path d="M0 0 C4.29 0 8.58 0 13 0 C12.34 4.62 11.68 9.24 11 14 C7.37 14 3.74 14 0 14 C0 9.38 0 4.76 0 0 Z " fill="#7DBAD9" transform="translate(146,94)"/>
<path d="M0 0 C4.62 0 9.24 0 14 0 C14 3.96 14 7.92 14 12 C9.71 12 5.42 12 1 12 C0.67 8.04 0.34 4.08 0 0 Z " fill="#95D2EF" transform="translate(113,79)"/>
<path d="M0 0 C4.62 0 9.24 0 14 0 C13.125 8.625 13.125 8.625 12 12 C8.04 12 4.08 12 0 12 C0 8.04 0 4.08 0 0 Z " fill="#F2F2F2" transform="translate(147,79)"/>
<path d="M0 0 C3.63 0 7.26 0 11 0 C11 3.96 11 7.92 11 12 C8.03 12 5.06 12 2 12 C2 11.01 2 10.02 2 9 C1.34 9 0.68 9 0 9 C0 6.03 0 3.06 0 0 Z " fill="#90CCEB" transform="translate(116,95)"/>
<path d="M0 0 C0.33 0 0.66 0 1 0 C1.16873478 1.43725871 1.33490737 2.87481838 1.5 4.3125 C1.5928125 5.11300781 1.685625 5.91351563 1.78125 6.73828125 C2.18585699 10.92162857 1.80690785 15.00588061 1.5 19.1875 C1.36078125 21.09595703 1.36078125 21.09595703 1.21875 23.04296875 C1.1465625 24.01878906 1.074375 24.99460937 1 26 C0.34 26 -0.32 26 -1 26 C-1 21.38 -1 16.76 -1 12 C-5.62 12 -10.24 12 -15 12 C-11.83759418 9.89172945 -10.49342531 9.66182535 -6.8125 9.375 C-5.91144531 9.30023438 -5.01039062 9.22546875 -4.08203125 9.1484375 C-3.39496094 9.09945312 -2.70789063 9.05046875 -2 9 C-1.855625 7.700625 -1.71125 6.40125 -1.5625 5.0625 C-1.125 1.125 -1.125 1.125 0 0 Z " fill="#010001" transform="translate(129,82)"/>
<path d="M0 0 C4.62 0 9.24 0 14 0 C14 3.96 14 7.92 14 12 C9.38 12 4.76 12 0 12 C0 9.69 0 7.38 0 5 C4.8274799 6.41292095 8.7162359 8.42974154 13 11 C13 7.7 13 4.4 13 1 C8.71 1 4.42 1 0 1 C0 0.67 0 0.34 0 0 Z " fill="#86B1C4" transform="translate(130,79)"/>
<path d="M0 0 C3 2.0625 3 2.0625 5 5 C5.625 8.5 5.625 8.5 5 12 C2.40783917 15.69186542 0.95850936 16.82883761 -3.5 17.625 C-7 17 -7 17 -9.9375 15 C-12.79117716 10.84919686 -12.7099846 8.9698922 -12 4 C-9.21741025 -0.63764958 -5.03817252 -1.13733003 0 0 Z M-11 6 C-11.75021244 8.54367668 -11.75021244 8.54367668 -11 11 C-9.05994287 13.58674284 -7.55074585 14.77405298 -4.5625 16 C-1.8441812 16.21098318 -1.8441812 16.21098318 0.75 14.4375 C3.15786277 12.13107266 3.15786277 12.13107266 4.125 9.0625 C4.27933963 5.81545449 4.27933963 5.81545449 1.875 3.125 C-0.76732837 0.88922923 -0.76732837 0.88922923 -3.5 0.375 C-7.17454513 1.29363628 -8.70367517 3.04758236 -11 6 Z " fill="#0E0E0E" transform="translate(119,138)"/>
<path d="M0 0 C2.14576637 -0.02685938 4.29162645 -0.04633088 6.4375 -0.0625 C7.63246094 -0.07410156 8.82742187 -0.08570312 10.05859375 -0.09765625 C13 0 13 0 14 1 C14.4652292 5.32490853 14.70500473 9.65935537 15 14 C10.71 14 6.42 14 2 14 C0.65088528 9.10945915 -0.11704968 5.10629224 0 0 Z M2 2 C2.33 5.63 2.66 9.26 3 13 C6.63 13 10.26 13 14 13 C13.855625 11.55625 13.71125 10.1125 13.5625 8.625 C13.48128906 7.81289062 13.40007812 7.00078125 13.31640625 6.1640625 C13.10909886 3.95727195 13.10909886 3.95727195 12 2 C8.7 2 5.4 2 2 2 Z " fill="#4991B6" transform="translate(99,94)"/>
<path d="M0 0 C2.31 0.66 4.62 1.32 7 2 C7.6875 4.3125 7.6875 4.3125 8 7 C6.875 8.875 6.875 8.875 5 10 C0.57894737 9.57894737 0.57894737 9.57894737 -1 8 C-1.23529412 2.47058824 -1.23529412 2.47058824 0 0 Z " fill="#3BA8DB" transform="translate(154,141)"/>
<path d="M0 0 C2.5 0.25 2.5 0.25 4.5 2.25 C3.93181818 7.81818182 3.93181818 7.81818182 2.5 9.25 C0.0625 9.4375 0.0625 9.4375 -2.5 9.25 C-4.5 7.25 -4.5 7.25 -4.75 4.75 C-4.40058445 1.25584452 -3.49415548 0.34941555 0 0 Z " fill="#38A7DA" transform="translate(115.5,141.75)"/>
<path d="M0 0 C4.29 0 8.58 0 13 0 C13 4.62 13 9.24 13 14 C9.04 14 5.08 14 1 14 C0.00723119 9.03615596 -0.0749534 5.02187812 0 0 Z M2 2 C2 5.63 2 9.26 2 13 C5.3 13 8.6 13 12 13 C12 9.37 12 5.74 12 2 C8.7 2 5.4 2 2 2 Z " fill="#4389AB" transform="translate(130,94)"/>
<path d="M0 0 C4.62 0 9.24 0 14 0 C15.07396066 4.29584263 15.07329796 7.60212211 15 12 C10.71 12 6.42 12 2 12 C0.64851459 7.69214025 0 4.58042408 0 0 Z M2 2 C2.33 4.97 2.66 7.94 3 11 C6.63 11 10.26 11 14 11 C13.67 8.03 13.34 5.06 13 2 C9.37 2 5.74 2 2 2 Z " fill="#4493BC" transform="translate(96,79)"/>
<path d="M0 0 C4.62 0 9.24 0 14 0 C14 3.96 14 7.92 14 12 C9.71 12 5.42 12 1 12 C0.67 8.04 0.34 4.08 0 0 Z M2 2 C1.979375 3.299375 1.95875 4.59875 1.9375 5.9375 C1.92589844 6.66839844 1.91429688 7.39929688 1.90234375 8.15234375 C1.79438816 10.01732141 1.79438816 10.01732141 3 11 C4.68608966 11.07205511 6.37500659 11.08386068 8.0625 11.0625 C8.98160156 11.05347656 9.90070313 11.04445313 10.84765625 11.03515625 C11.55792969 11.02355469 12.26820312 11.01195313 13 11 C13 8.36 13 5.72 13 3 C10.24921116 2.08307039 8.64051087 1.89113917 5.8125 1.9375 C4.554375 1.958125 3.29625 1.97875 2 2 Z " fill="#418BB2" transform="translate(113,79)"/>
<path d="M0 0 C4.62 0 9.24 0 14 0 C14 2.64 14 5.28 14 8 C9.38 5.69 4.76 3.38 0 1 C0 0.67 0 0.34 0 0 Z " fill="#F3F8F9" transform="translate(94,63)"/>
<path d="M0 0 C4.62 2.31 9.24 4.62 14 7 C14 7.33 14 7.66 14 8 C9.38 8 4.76 8 0 8 C0 5.36 0 2.72 0 0 Z " fill="#75ADC8" transform="translate(160,100)"/>
<path d="M0 0 C1.98 0.99 3.96 1.98 6 3 C5.01 3.33 4.02 3.66 3 4 C3 6.64 3 9.28 3 12 C6.96 12 10.92 12 15 12 C15 11.01 15 10.02 15 9 C12.525 8.01 12.525 8.01 10 7 C12.17489867 5.91255066 13.58411219 6 16 6 C16 8.31 16 10.62 16 13 C11.38 13 6.76 13 2 13 C0 4.5 0 4.5 0 0 Z " fill="#59A9CC" transform="translate(93,63)"/>
<path d="M0 0 C2.3431213 0.25561323 4.67843403 0.59270772 7 1 C8.52491998 4.04983996 8.23562548 6.6423369 8 10 C6.8125 11.9375 6.8125 11.9375 5 13 C2.3125 13.1875 2.3125 13.1875 0 13 C-0.33 12.34 -0.66 11.68 -1 11 C0.98 10.67 2.96 10.34 5 10 C4.67 7.69 4.34 5.38 4 3 C2.35 2.67 0.7 2.34 -1 2 C-0.67 1.34 -0.34 0.68 0 0 Z " fill="#BFCFD3" transform="translate(156,140)"/>
<path d="M0 0 C2.97 0 5.94 0 9 0 C8.67 1.65 8.34 3.3 8 5 C4.62537285 4.45276317 2.91765 3.9451 0 2 C0 1.34 0 0.68 0 0 Z " fill="#A9C4D0" transform="translate(150,94)"/>
<path d="M0 0 C0.99 0.495 0.99 0.495 2 1 C2 1.66 2 2.32 2 3 C7.28199593 4.19988045 7.28199593 4.19988045 12 2 C12.99 2.33 13.98 2.66 15 3 C12.44143409 5.45622327 11.09262844 5.99007552 7.5 6.375 C3.90112956 5.98940674 2.43647768 5.63139589 0 3 C0 2.01 0 1.02 0 0 Z " fill="#272626" transform="translate(108,149)"/>
<path d="M0 0 C0 0.66 0 1.32 0 2 C0.66 2.33 1.32 2.66 2 3 C0.576875 3.37125 0.576875 3.37125 -0.875 3.75 C-4.08693191 4.6857077 -4.08693191 4.6857077 -5.375 7.125 C-5.58125 7.74375 -5.7875 8.3625 -6 9 C-6.33 7.02 -6.66 5.04 -7 3 C-3.375 0 -3.375 0 0 0 Z " fill="#B5C8CD" transform="translate(116,139)"/>
<path d="M0 0 C3.65316671 1.24976756 4.78065836 1.67098753 7 5 C7 6.32 7 7.64 7 9 C6.34 9 5.68 9 5 9 C5 7.68 5 6.36 5 5 C4.01 4.67 3.02 4.34 2 4 C2 3.34 2 2.68 2 2 C1.34 2 0.68 2 0 2 C0 1.34 0 0.68 0 0 Z " fill="#A8ABAB" transform="translate(116,139)"/>
<path d="M0 0 C0.66 0 1.32 0 2 0 C3.23921302 2.97411124 4.30058404 5.85262818 5 9 C2 8 2 8 0 5 C-0.125 2.3125 -0.125 2.3125 0 0 Z " fill="#ACB0B0" transform="translate(108,144)"/>
<path d="M0 0 C0 0.66 0 1.32 0 2 C-4.08443115 3.53166168 -7.79455657 2.63081652 -12 2 C-12.33 2.66 -12.66 3.32 -13 4 C-13 3.01 -13 2.02 -13 1 C-11.58366664 0.83052421 -10.16691467 0.66454493 -8.75 0.5 C-7.56664063 0.36078125 -7.56664063 0.36078125 -6.359375 0.21875 C-4 0 -4 0 0 0 Z " fill="#77B9D9" transform="translate(127,79)"/>
<path d="M0 0 C0.33 1.32 0.66 2.64 1 4 C1.99 4 2.98 4 4 4 C4.33 4.66 4.66 5.32 5 6 C5.99 6.66 6.98 7.32 8 8 C5.1875 7.8125 5.1875 7.8125 2 7 C0.0625 4.5625 0.0625 4.5625 -1 2 C-0.67 1.34 -0.34 0.68 0 0 Z " fill="#A4A8A8" transform="translate(151,146)"/>
<path d="M0 0 C-1.1875 1.5 -1.1875 1.5 -3 3 C-5.6875 3.1875 -5.6875 3.1875 -8 3 C-8.33 2.34 -8.66 1.68 -9 1 C-2.25 -1.125 -2.25 -1.125 0 0 Z " fill="#B9C5C7" transform="translate(164,150)"/>
<path d="M0 0 C0.33 1.32 0.66 2.64 1 4 C-2.63 4 -6.26 4 -10 4 C-10 3.67 -10 3.34 -10 3 C-8.72125 2.87625 -7.4425 2.7525 -6.125 2.625 C-2.65209064 2.30957601 -2.65209064 2.30957601 0 0 Z " fill="#74C5EC" transform="translate(112,103)"/>
</svg>
